<mxfile host="app.diagrams.net" agent="Mozilla/5.0 (Windows NT 10.0; Win64; x64) AppleWebKit/537.36 (KHTML, like Gecko) Chrome/137.0.0.0 Safari/537.36" version="27.1.1">
  <diagram name="Page-1" id="iz4ZRRd6BJ3enqXNFH-S">
    <mxGraphModel dx="1426" dy="757" grid="1" gridSize="10" guides="1" tooltips="1" connect="1" arrows="1" fold="1" page="1" pageScale="1" pageWidth="850" pageHeight="1100" math="0" shadow="0">
      <root>
        <mxCell id="0" />
        <mxCell id="1" parent="0" />
        <mxCell id="AhkPmPhHsj4ZULWyvhsN-2" value="Application Express.js conteneurisée" style="verticalAlign=top;align=left;spacingTop=8;spacingLeft=2;spacingRight=12;shape=cube;size=10;direction=south;fontStyle=4;html=1;whiteSpace=wrap;" vertex="1" parent="1">
          <mxGeometry x="315" y="220" width="215" height="190" as="geometry" />
        </mxCell>
        <mxCell id="AhkPmPhHsj4ZULWyvhsN-3" value="Application Backend Express.js" style="html=1;dropTarget=0;whiteSpace=wrap;" vertex="1" parent="1">
          <mxGeometry x="332.5" y="280" width="180" height="90" as="geometry" />
        </mxCell>
        <mxCell id="AhkPmPhHsj4ZULWyvhsN-4" value="" style="shape=module;jettyWidth=8;jettyHeight=4;" vertex="1" parent="AhkPmPhHsj4ZULWyvhsN-3">
          <mxGeometry x="1" width="20" height="20" relative="1" as="geometry">
            <mxPoint x="-27" y="7" as="offset" />
          </mxGeometry>
        </mxCell>
        <mxCell id="AhkPmPhHsj4ZULWyvhsN-5" value="Base de données conteneurisée" style="verticalAlign=top;align=left;spacingTop=8;spacingLeft=2;spacingRight=12;shape=cube;size=10;direction=south;fontStyle=4;html=1;whiteSpace=wrap;" vertex="1" parent="1">
          <mxGeometry x="315" y="490" width="215" height="120" as="geometry" />
        </mxCell>
        <mxCell id="AhkPmPhHsj4ZULWyvhsN-6" value="MongoDB: 27018" style="strokeWidth=2;html=1;shape=mxgraph.flowchart.database;whiteSpace=wrap;" vertex="1" parent="1">
          <mxGeometry x="362.5" y="530" width="120" height="70" as="geometry" />
        </mxCell>
        <mxCell id="AhkPmPhHsj4ZULWyvhsN-9" value="Machine avec Python d&#39;installé" style="verticalAlign=top;align=left;spacingTop=8;spacingLeft=2;spacingRight=12;shape=cube;size=10;direction=south;fontStyle=4;html=1;whiteSpace=wrap;" vertex="1" parent="1">
          <mxGeometry x="315" y="30" width="215" height="140" as="geometry" />
        </mxCell>
        <mxCell id="AhkPmPhHsj4ZULWyvhsN-7" value="Application Python Console" style="html=1;dropTarget=0;whiteSpace=wrap;" vertex="1" parent="1">
          <mxGeometry x="332.5" y="70" width="180" height="90" as="geometry" />
        </mxCell>
        <mxCell id="AhkPmPhHsj4ZULWyvhsN-8" value="" style="shape=module;jettyWidth=8;jettyHeight=4;" vertex="1" parent="AhkPmPhHsj4ZULWyvhsN-7">
          <mxGeometry x="1" width="20" height="20" relative="1" as="geometry">
            <mxPoint x="-27" y="7" as="offset" />
          </mxGeometry>
        </mxCell>
        <mxCell id="AhkPmPhHsj4ZULWyvhsN-11" value="" style="endArrow=none;html=1;rounded=0;entryX=0.5;entryY=1;entryDx=0;entryDy=0;exitX=0.5;exitY=0;exitDx=0;exitDy=0;" edge="1" parent="1" source="AhkPmPhHsj4ZULWyvhsN-3" target="AhkPmPhHsj4ZULWyvhsN-7">
          <mxGeometry width="50" height="50" relative="1" as="geometry">
            <mxPoint x="210" y="180" as="sourcePoint" />
            <mxPoint x="260" y="130" as="targetPoint" />
          </mxGeometry>
        </mxCell>
        <mxCell id="AhkPmPhHsj4ZULWyvhsN-12" value="" style="endArrow=none;html=1;rounded=0;entryX=0.5;entryY=1;entryDx=0;entryDy=0;exitX=0.5;exitY=0;exitDx=0;exitDy=0;exitPerimeter=0;" edge="1" parent="1" source="AhkPmPhHsj4ZULWyvhsN-6" target="AhkPmPhHsj4ZULWyvhsN-3">
          <mxGeometry width="50" height="50" relative="1" as="geometry">
            <mxPoint x="240" y="510" as="sourcePoint" />
            <mxPoint x="290" y="460" as="targetPoint" />
          </mxGeometry>
        </mxCell>
        <mxCell id="AhkPmPhHsj4ZULWyvhsN-13" value="Text" style="text;strokeColor=none;align=center;fillColor=none;html=1;verticalAlign=middle;whiteSpace=wrap;rounded=0;" vertex="1" parent="1">
          <mxGeometry x="400" y="380" width="60" height="30" as="geometry" />
        </mxCell>
        <mxCell id="AhkPmPhHsj4ZULWyvhsN-14" value="HTTPS" style="text;html=1;align=center;verticalAlign=middle;whiteSpace=wrap;rounded=0;" vertex="1" parent="1">
          <mxGeometry x="422.5" y="180" width="60" height="30" as="geometry" />
        </mxCell>
        <mxCell id="AhkPmPhHsj4ZULWyvhsN-15" value="TCP/IP" style="text;html=1;align=center;verticalAlign=middle;whiteSpace=wrap;rounded=0;" vertex="1" parent="1">
          <mxGeometry x="425" y="440" width="60" height="30" as="geometry" />
        </mxCell>
      </root>
    </mxGraphModel>
  </diagram>
</mxfile>
